<?xml version="1.0" encoding="UTF-8"?>
<svg xmlns="http://www.w3.org/2000/svg" xmlns:xlink="http://www.w3.org/1999/xlink" width="20pt" height="30pt" viewBox="-5 -3 25 27" version="1.1">
<g id="cast">
<path style=" stroke:none;fill-rule:nonzero;fill:rgb(0%,0%,0%);fill-opacity:1;" d="M 0 8.183594 L 0 10 C 4.519531 10 8.183594 13.664062 8.183594 18.183594 L 10 18.183594 C 10 12.660156 5.523438 8.183594 0 8.183594 Z M 0 8.183594 "/>
<path style=" stroke:none;fill-rule:nonzero;fill:rgb(0%,0%,0%);fill-opacity:1;" d="M 0 11.816406 L 0 13.636719 C 2.511719 13.636719 4.546875 15.671875 4.546875 18.183594 L 6.363281 18.183594 C 6.363281 14.667969 3.515625 11.816406 0 11.816406 Z M 0 11.816406 "/>
<path style=" stroke:none;fill-rule:nonzero;fill:rgb(0%,0%,0%);fill-opacity:1;" d="M 0 15.453125 L 0 18.183594 L 2.726562 18.183594 C 2.726562 16.679688 1.503906 15.453125 0 15.453125 Z M 0 15.453125 "/>
<path style=" stroke:none;fill-rule:nonzero;fill:rgb(0%,0%,0%);fill-opacity:1;" d="M 18.183594 1.816406 L 1.816406 1.816406 C 0.8125 1.816406 0 2.632812 0 3.636719 L 0 6.363281 L 1.816406 6.363281 L 1.816406 3.636719 L 18.183594 3.636719 L 18.183594 16.363281 L 11.816406 16.363281 L 11.816406 18.183594 L 18.183594 18.183594 C 19.1875 18.183594 20 17.367188 20 16.363281 L 20 3.636719 C 20 2.632812 19.1875 1.816406 18.183594 1.816406 Z M 18.183594 1.816406 "/>
<path style=" stroke:none;fill-rule:nonzero;fill:rgb(0%,0%,0%);fill-opacity:1;" d="M 16.363281 5.453125 L 3.636719 5.453125 L 3.636719 6.941406 C 7.238281 8.105469 10.078125 10.945312 11.238281 14.546875 L 16.363281 14.546875 Z M 16.363281 5.453125 "/>
</g>
</svg>
