<?xml version="1.0" encoding="UTF-8"?>
<svg xmlns="http://www.w3.org/2000/svg" xmlns:xlink="http://www.w3.org/1999/xlink" width="20pt" height="30pt" viewBox="-5 -3 25 27" version="1.1">
<g id="cast">
<path style=" stroke:none;fill-rule:nonzero;fill:rgb(0%,0%,0%);fill-opacity:1;" d="M 18.183594 1.816406 L 1.816406 1.816406 C 0.820312 1.816406 0 2.636719 0 3.636719 L 0 6.363281 L 1.816406 6.363281 L 1.816406 3.636719 L 18.183594 3.636719 L 18.183594 16.363281 L 11.816406 16.363281 L 11.816406 18.183594 L 18.183594 18.183594 C 19.179688 18.183594 20 17.363281 20 16.363281 L 20 3.636719 C 20 2.636719 19.179688 1.816406 18.183594 1.816406 Z M 0 15.453125 L 0 18.183594 L 2.726562 18.183594 C 2.726562 16.636719 1.546875 15.453125 0 15.453125 Z M 0 11.816406 L 0 13.636719 C 2.546875 13.636719 4.546875 15.636719 4.546875 18.183594 L 6.363281 18.183594 C 6.363281 14.636719 3.542969 11.816406 0 11.816406 Z M 0 8.183594 L 0 10 C 4.546875 10 8.183594 13.636719 8.183594 18.183594 L 10 18.183594 C 10 12.636719 5.546875 8.183594 0 8.183594 Z M 0 8.183594 "/>
</g>
</svg>
