<?xml version="1.0" encoding="UTF-8"?>
<svg xmlns="http://www.w3.org/2000/svg" xmlns:xlink="http://www.w3.org/1999/xlink" width="20pt" height="30pt" viewBox="-5 -3 25 27" version="1.1">
<g id="castcc">
<path style=" stroke:none;fill-rule:nonzero;fill:rgb(64.313725%,76.078431%,96.862745%);fill-opacity:1;" d="M 5.394531 2.078125 L 2.757812 4.714844 L 2.089844 5.386719 L 0.433594 3.730469 C 0.371094 3.667969 0.335938 3.582031 0.335938 3.496094 C 0.335938 3.40625 0.371094 3.320312 0.433594 3.257812 L 3.269531 0.421875 C 3.398438 0.292969 3.609375 0.292969 3.738281 0.421875 L 4.175781 0.855469 Z M 5.394531 2.078125 "/>
<path style=" stroke:none;fill-rule:nonzero;fill:rgb(100%,100%,100%);fill-opacity:1;" d="M 17.394531 18.359375 C 17.105469 18.59375 16.792969 18.796875 16.460938 18.964844 C 14.40625 20.050781 11.910156 19.855469 10.050781 18.460938 C 8.195312 17.066406 7.304688 14.726562 7.773438 12.449219 C 7.820312 12.230469 7.753906 12.003906 7.597656 11.839844 L 1.851562 6.09375 C 1.722656 5.960938 1.722656 5.75 1.851562 5.617188 L 5.628906 1.84375 C 5.652344 1.820312 5.675781 1.804688 5.699219 1.789062 C 5.832031 1.710938 5.996094 1.734375 6.105469 1.84375 L 11.863281 7.601562 C 12.015625 7.753906 12.234375 7.8125 12.441406 7.769531 C 15.167969 7.203125 17.925781 8.582031 19.105469 11.105469 C 20.285156 13.628906 19.578125 16.628906 17.394531 18.359375 Z M 17.394531 18.359375 "/>
<path style=" stroke:none;fill-rule:nonzero;fill:rgb(49.803922%,67.45098%,98.039216%);fill-opacity:1;" d="M 5.394531 2.078125 L 2.757812 4.714844 L 1.773438 3.730469 C 1.710938 3.667969 1.675781 3.582031 1.675781 3.496094 C 1.675781 3.40625 1.710938 3.320312 1.773438 3.257812 L 4.175781 0.855469 Z M 5.394531 2.078125 "/>
<path style=" stroke:none;fill-rule:nonzero;fill:rgb(83.137255%,88.235294%,95.686275%);fill-opacity:1;" d="M 15.992188 13.648438 C 15.992188 14.941406 14.949219 15.984375 13.65625 15.984375 C 12.367188 15.984375 11.320312 14.941406 11.320312 13.648438 C 11.320312 12.359375 12.367188 11.3125 13.65625 11.3125 C 14.949219 11.3125 15.992188 12.359375 15.992188 13.648438 Z M 15.992188 13.648438 "/>
<path style=" stroke:none;fill-rule:nonzero;fill:rgb(83.137255%,88.235294%,95.686275%);fill-opacity:1;" d="M 17.394531 18.359375 C 17.105469 18.59375 16.792969 18.796875 16.460938 18.964844 C 14.433594 19.605469 12.214844 19.125 10.632812 17.699219 C 9.050781 16.273438 8.34375 14.117188 8.773438 12.03125 C 8.800781 11.90625 8.789062 11.777344 8.742188 11.65625 L 2.523438 5.4375 C 2.394531 5.308594 2.394531 5.097656 2.523438 4.964844 L 5.699219 1.789062 C 5.832031 1.710938 5.996094 1.734375 6.105469 1.84375 L 11.863281 7.601562 C 12.015625 7.753906 12.234375 7.8125 12.441406 7.769531 C 15.167969 7.203125 17.925781 8.582031 19.105469 11.105469 C 20.285156 13.628906 19.578125 16.628906 17.394531 18.359375 Z M 17.394531 18.359375 "/>
<path style=" stroke:none;fill-rule:nonzero;fill:rgb(83.137255%,88.235294%,95.686275%);fill-opacity:1;" d="M 17.433594 17.425781 L 17.90625 17.902344 "/>
<path style=" stroke:none;fill-rule:nonzero;fill:rgb(25.882353%,55.294118%,100%);fill-opacity:1;" d="M 2.089844 5.714844 C 2 5.714844 1.914062 5.683594 1.855469 5.617188 L 0.199219 3.964844 C -0.0585938 3.707031 -0.0585938 3.28125 0.199219 3.023438 L 3.035156 0.1875 C 3.296875 -0.0625 3.710938 -0.0625 3.976562 0.1875 L 5.628906 1.84375 C 5.691406 1.902344 5.726562 1.988281 5.726562 2.078125 C 5.726562 2.167969 5.691406 2.25 5.628906 2.3125 L 2.324219 5.617188 C 2.261719 5.683594 2.175781 5.714844 2.089844 5.714844 Z M 3.503906 0.660156 L 0.671875 3.496094 L 2.089844 4.910156 L 4.921875 2.078125 Z M 3.503906 0.660156 "/>
<path style=" stroke:none;fill-rule:nonzero;fill:rgb(25.882353%,55.294118%,100%);fill-opacity:1;" d="M 13.660156 20 C 11.757812 20 9.949219 19.140625 8.746094 17.667969 C 7.542969 16.191406 7.066406 14.25 7.445312 12.382812 C 7.472656 12.273438 7.441406 12.160156 7.363281 12.078125 C 7.234375 11.945312 7.234375 11.734375 7.363281 11.605469 C 7.496094 11.472656 7.707031 11.472656 7.835938 11.605469 C 8.070312 11.847656 8.171875 12.1875 8.097656 12.515625 C 7.621094 14.855469 8.65625 17.242188 10.6875 18.488281 C 12.722656 19.738281 15.320312 19.582031 17.1875 18.097656 C 19.246094 16.464844 19.917969 13.628906 18.800781 11.246094 C 17.6875 8.863281 15.082031 7.558594 12.507812 8.09375 C 12.1875 8.164062 11.859375 8.066406 11.625 7.835938 L 5.867188 2.078125 L 2.089844 5.855469 C 2.21875 5.988281 2.21875 6.195312 2.089844 6.328125 C 1.957031 6.457031 1.746094 6.457031 1.617188 6.328125 C 1.355469 6.066406 1.355469 5.644531 1.617188 5.382812 L 5.394531 1.605469 C 5.65625 1.347656 6.074219 1.347656 6.339844 1.605469 L 12.097656 7.367188 C 12.171875 7.4375 12.277344 7.464844 12.375 7.441406 C 14.742188 6.953125 17.183594 7.859375 18.664062 9.769531 C 20.144531 11.679688 20.410156 14.269531 19.347656 16.445312 C 18.285156 18.617188 16.078125 19.996094 13.660156 20 Z M 13.660156 20 "/>
<path style=" stroke:none;fill-rule:nonzero;fill:rgb(49.803922%,67.45098%,98.039216%);fill-opacity:1;" d="M 15.3125 15.300781 C 14.398438 16.214844 12.917969 16.214844 12.007812 15.300781 C 11.09375 14.390625 11.09375 12.910156 12.007812 12 C 12.917969 11.085938 14.398438 11.085938 15.3125 11.996094 C 15.75 12.433594 15.996094 13.027344 15.996094 13.652344 C 15.996094 14.269531 15.75 14.863281 15.3125 15.300781 Z M 15.3125 15.300781 "/>
<path style=" stroke:none;fill-rule:nonzero;fill:rgb(64.313725%,76.078431%,96.862745%);fill-opacity:1;" d="M 14.316406 15.300781 C 14 15.617188 13.597656 15.835938 13.164062 15.929688 C 12.089844 15.695312 11.320312 14.746094 11.320312 13.648438 C 11.320312 12.550781 12.089844 11.601562 13.164062 11.367188 C 13.601562 11.460938 14.003906 11.679688 14.316406 11.996094 C 15.226562 12.910156 15.226562 14.386719 14.316406 15.300781 Z M 14.316406 15.300781 "/>
<path style=" stroke:none;fill-rule:nonzero;fill:rgb(25.882353%,55.294118%,100%);fill-opacity:1;" d="M 13.65625 16.320312 C 12.382812 16.316406 11.289062 15.417969 11.039062 14.167969 C 10.792969 12.917969 11.460938 11.667969 12.636719 11.183594 C 13.8125 10.695312 15.171875 11.105469 15.878906 12.167969 C 16.585938 13.226562 16.445312 14.636719 15.546875 15.535156 C 15.046875 16.039062 14.363281 16.320312 13.65625 16.320312 Z M 13.65625 11.644531 C 12.703125 11.644531 11.878906 12.324219 11.691406 13.261719 C 11.507812 14.199219 12.007812 15.136719 12.890625 15.5 C 13.777344 15.867188 14.792969 15.558594 15.324219 14.761719 C 15.855469 13.964844 15.75 12.90625 15.074219 12.230469 C 14.699219 11.855469 14.1875 11.644531 13.65625 11.644531 Z M 13.65625 11.644531 "/>
<path style=" stroke:none;fill-rule:nonzero;fill:rgb(25.882353%,55.294118%,100%);fill-opacity:1;" d="M 13.65625 17.984375 C 11.589844 17.992188 9.8125 16.535156 9.410156 14.511719 C 9.355469 14.210938 9.214844 13.9375 9.003906 13.71875 L 3.4375 8.230469 C 3.304688 8.097656 3.304688 7.890625 3.433594 7.757812 C 3.5625 7.628906 3.773438 7.625 3.90625 7.753906 L 9.472656 13.246094 C 9.777344 13.554688 9.980469 13.953125 10.0625 14.378906 C 10.214844 15.144531 10.605469 15.839844 11.179688 16.363281 C 12.59375 17.644531 14.75 17.636719 16.152344 16.34375 C 17.164062 15.410156 17.566406 13.992188 17.199219 12.667969 C 16.832031 11.34375 15.753906 10.332031 14.40625 10.058594 C 13.964844 9.972656 13.558594 9.761719 13.234375 9.449219 L 5.867188 2.078125 L 2.089844 5.855469 C 2.21875 5.988281 2.21875 6.195312 2.089844 6.328125 C 1.957031 6.457031 1.746094 6.457031 1.617188 6.328125 C 1.355469 6.066406 1.355469 5.644531 1.617188 5.382812 L 5.394531 1.605469 C 5.65625 1.347656 6.074219 1.347656 6.339844 1.605469 L 13.707031 8.976562 C 13.9375 9.199219 14.226562 9.347656 14.539062 9.402344 C 16.71875 9.851562 18.207031 11.878906 17.980469 14.09375 C 17.75 16.308594 15.882812 17.988281 13.65625 17.984375 Z M 13.65625 17.984375 "/>
<path style=" stroke:none;fill-rule:nonzero;fill:rgb(25.882353%,55.294118%,100%);fill-opacity:1;" d="M 17.90625 18.230469 C 17.816406 18.234375 17.734375 18.199219 17.671875 18.136719 L 17.199219 17.664062 C 17.070312 17.53125 17.070312 17.324219 17.199219 17.191406 C 17.328125 17.0625 17.539062 17.0625 17.667969 17.191406 L 18.144531 17.664062 C 18.238281 17.761719 18.265625 17.902344 18.214844 18.027344 C 18.164062 18.152344 18.042969 18.230469 17.90625 18.230469 Z M 17.90625 18.230469 "/>
<path style=" stroke:none;fill-rule:nonzero;fill:rgb(25.882353%,55.294118%,100%);fill-opacity:1;" d="M 2.671875 7.324219 C 2.628906 7.324219 2.585938 7.316406 2.542969 7.296875 C 2.503906 7.28125 2.46875 7.257812 2.433594 7.226562 C 2.339844 7.132812 2.3125 6.988281 2.363281 6.863281 C 2.382812 6.824219 2.40625 6.785156 2.433594 6.753906 C 2.449219 6.738281 2.46875 6.726562 2.484375 6.714844 C 2.503906 6.703125 2.523438 6.691406 2.542969 6.683594 C 2.5625 6.675781 2.582031 6.667969 2.605469 6.664062 C 2.648438 6.65625 2.695312 6.65625 2.738281 6.664062 C 2.757812 6.667969 2.777344 6.675781 2.796875 6.683594 C 2.820312 6.691406 2.839844 6.703125 2.859375 6.714844 C 2.875 6.726562 2.890625 6.738281 2.90625 6.753906 C 2.9375 6.785156 2.960938 6.824219 2.976562 6.863281 C 3.03125 6.988281 3.003906 7.132812 2.90625 7.226562 C 2.875 7.257812 2.839844 7.28125 2.796875 7.296875 C 2.757812 7.316406 2.714844 7.324219 2.671875 7.324219 Z M 2.671875 7.324219 "/>
</g>
</svg>
