<?xml version="1.0" encoding="UTF-8"?>
<svg xmlns="http://www.w3.org/2000/svg" xmlns:xlink="http://www.w3.org/1999/xlink" width="20pt" height="30pt" viewBox="-5 -3 25 27" version="1.1">
<defs>
<linearGradient id="linear0" gradientUnits="userSpaceOnUse" x1="69.7014" y1="257.9983" x2="442.3001" y2="257.9983" gradientTransform="matrix(0.0390623,0,0,-0.0390623,0,20.078011)">
<stop offset="0" style="stop-color:rgb(50.196078%,84.705882%,100%);stop-opacity:1;"/>
<stop offset="1" style="stop-color:rgb(91.764706%,50.196078%,98.823529%);stop-opacity:1;"/>
</linearGradient>
</defs>
<g id="surface1">
<path style=" stroke:none;fill-rule:nonzero;fill:url(#linear0);" d="M 17.238281 14.0625 C 17.164062 13.316406 15.914062 1.269531 15.855469 0.703125 C 15.832031 0.472656 15.707031 0.261719 15.515625 0.136719 C 15.324219 0.00390625 15.085938 -0.03125 14.863281 0.0273438 L 4.398438 3.003906 C 4.09375 3.089844 3.867188 3.359375 3.835938 3.675781 C 3.769531 4.34375 2.824219 13.460938 2.761719 14.0625 C 2.628906 15.324219 2.84375 16.601562 3.378906 17.753906 L 4.214844 19.546875 C 4.34375 19.824219 4.617188 20 4.921875 20 L 15.078125 20 C 15.382812 20 15.65625 19.824219 15.785156 19.546875 L 16.621094 17.753906 C 17.15625 16.601562 17.371094 15.324219 17.238281 14.0625 Z M 14.394531 1.785156 L 15.359375 11.054688 L 4.640625 11.054688 L 5.335938 4.363281 Z M 15.207031 17.09375 L 14.582031 18.4375 L 5.417969 18.4375 L 4.792969 17.09375 C 4.378906 16.199219 4.210938 15.207031 4.316406 14.222656 L 4.480469 12.617188 L 15.519531 12.617188 L 15.683594 14.222656 C 15.789062 15.207031 15.621094 16.199219 15.207031 17.09375 Z M 15.207031 17.09375 "/>
</g>
</svg>
